<?xml version="1.0" encoding="utf-8" standalone="no"?>
<!DOCTYPE svg PUBLIC "-//W3C//DTD SVG 1.1//EN"
  "http://www.w3.org/Graphics/SVG/1.1/DTD/svg11.dtd">
<!-- Created with matplotlib (https://matplotlib.org/) -->
<svg height="720pt" version="1.1" viewBox="0 0 1008 720" width="1008pt" xmlns="http://www.w3.org/2000/svg" xmlns:xlink="http://www.w3.org/1999/xlink">
 <defs>
  <style type="text/css">
*{stroke-linecap:butt;stroke-linejoin:round;}
  </style>
 </defs>
 <g id="figure_1">
  <g id="patch_1">
   <path d="M 0 720 
L 1008 720 
L 1008 0 
L 0 0 
z
" style="fill:#ffffff;"/>
  </g>
  <g id="axes_1">
   <g id="patch_2">
    <path d="M 126 630 
L 907.2 630 
L 907.2 86.4 
L 126 86.4 
z
" style="fill:#ffffff;"/>
   </g>
   <g id="matplotlib.axis_1">
    <g id="xtick_1">
     <g id="line2d_1">
      <defs>
       <path d="M 0 0 
L 0 3.5 
" id="mf7bf0bd807" style="stroke:#000000;stroke-width:0.8;"/>
      </defs>
      <g>
       <use style="stroke:#000000;stroke-width:0.8;" x="161.509091" xlink:href="#mf7bf0bd807" y="630"/>
      </g>
     </g>
     <g id="text_1">
      <!-- 0 -->
      <defs>
       <path d="M 31.78125 66.40625 
Q 24.171875 66.40625 20.328125 58.90625 
Q 16.5 51.421875 16.5 36.375 
Q 16.5 21.390625 20.328125 13.890625 
Q 24.171875 6.390625 31.78125 6.390625 
Q 39.453125 6.390625 43.28125 13.890625 
Q 47.125 21.390625 47.125 36.375 
Q 47.125 51.421875 43.28125 58.90625 
Q 39.453125 66.40625 31.78125 66.40625 
z
M 31.78125 74.21875 
Q 44.046875 74.21875 50.515625 64.515625 
Q 56.984375 54.828125 56.984375 36.375 
Q 56.984375 17.96875 50.515625 8.265625 
Q 44.046875 -1.421875 31.78125 -1.421875 
Q 19.53125 -1.421875 13.0625 8.265625 
Q 6.59375 17.96875 6.59375 36.375 
Q 6.59375 54.828125 13.0625 64.515625 
Q 19.53125 74.21875 31.78125 74.21875 
z
" id="DejaVuSans-48"/>
      </defs>
      <g transform="translate(156.737216 648.397656)scale(0.15 -0.15)">
       <use xlink:href="#DejaVuSans-48"/>
      </g>
     </g>
    </g>
    <g id="xtick_2">
     <g id="line2d_2">
      <g>
       <use style="stroke:#000000;stroke-width:0.8;" x="311.021053" xlink:href="#mf7bf0bd807" y="630"/>
      </g>
     </g>
     <g id="text_2">
      <!-- 20 -->
      <defs>
       <path d="M 19.1875 8.296875 
L 53.609375 8.296875 
L 53.609375 0 
L 7.328125 0 
L 7.328125 8.296875 
Q 12.9375 14.109375 22.625 23.890625 
Q 32.328125 33.6875 34.8125 36.53125 
Q 39.546875 41.84375 41.421875 45.53125 
Q 43.3125 49.21875 43.3125 52.78125 
Q 43.3125 58.59375 39.234375 62.25 
Q 35.15625 65.921875 28.609375 65.921875 
Q 23.96875 65.921875 18.8125 64.3125 
Q 13.671875 62.703125 7.8125 59.421875 
L 7.8125 69.390625 
Q 13.765625 71.78125 18.9375 73 
Q 24.125 74.21875 28.421875 74.21875 
Q 39.75 74.21875 46.484375 68.546875 
Q 53.21875 62.890625 53.21875 53.421875 
Q 53.21875 48.921875 51.53125 44.890625 
Q 49.859375 40.875 45.40625 35.40625 
Q 44.1875 33.984375 37.640625 27.21875 
Q 31.109375 20.453125 19.1875 8.296875 
z
" id="DejaVuSans-50"/>
      </defs>
      <g transform="translate(301.477303 648.397656)scale(0.15 -0.15)">
       <use xlink:href="#DejaVuSans-50"/>
       <use x="63.623047" xlink:href="#DejaVuSans-48"/>
      </g>
     </g>
    </g>
    <g id="xtick_3">
     <g id="line2d_3">
      <g>
       <use style="stroke:#000000;stroke-width:0.8;" x="460.533014" xlink:href="#mf7bf0bd807" y="630"/>
      </g>
     </g>
     <g id="text_3">
      <!-- 40 -->
      <defs>
       <path d="M 37.796875 64.3125 
L 12.890625 25.390625 
L 37.796875 25.390625 
z
M 35.203125 72.90625 
L 47.609375 72.90625 
L 47.609375 25.390625 
L 58.015625 25.390625 
L 58.015625 17.1875 
L 47.609375 17.1875 
L 47.609375 0 
L 37.796875 0 
L 37.796875 17.1875 
L 4.890625 17.1875 
L 4.890625 26.703125 
z
" id="DejaVuSans-52"/>
      </defs>
      <g transform="translate(450.989264 648.397656)scale(0.15 -0.15)">
       <use xlink:href="#DejaVuSans-52"/>
       <use x="63.623047" xlink:href="#DejaVuSans-48"/>
      </g>
     </g>
    </g>
    <g id="xtick_4">
     <g id="line2d_4">
      <g>
       <use style="stroke:#000000;stroke-width:0.8;" x="610.044976" xlink:href="#mf7bf0bd807" y="630"/>
      </g>
     </g>
     <g id="text_4">
      <!-- 60 -->
      <defs>
       <path d="M 33.015625 40.375 
Q 26.375 40.375 22.484375 35.828125 
Q 18.609375 31.296875 18.609375 23.390625 
Q 18.609375 15.53125 22.484375 10.953125 
Q 26.375 6.390625 33.015625 6.390625 
Q 39.65625 6.390625 43.53125 10.953125 
Q 47.40625 15.53125 47.40625 23.390625 
Q 47.40625 31.296875 43.53125 35.828125 
Q 39.65625 40.375 33.015625 40.375 
z
M 52.59375 71.296875 
L 52.59375 62.3125 
Q 48.875 64.0625 45.09375 64.984375 
Q 41.3125 65.921875 37.59375 65.921875 
Q 27.828125 65.921875 22.671875 59.328125 
Q 17.53125 52.734375 16.796875 39.40625 
Q 19.671875 43.65625 24.015625 45.921875 
Q 28.375 48.1875 33.59375 48.1875 
Q 44.578125 48.1875 50.953125 41.515625 
Q 57.328125 34.859375 57.328125 23.390625 
Q 57.328125 12.15625 50.6875 5.359375 
Q 44.046875 -1.421875 33.015625 -1.421875 
Q 20.359375 -1.421875 13.671875 8.265625 
Q 6.984375 17.96875 6.984375 36.375 
Q 6.984375 53.65625 15.1875 63.9375 
Q 23.390625 74.21875 37.203125 74.21875 
Q 40.921875 74.21875 44.703125 73.484375 
Q 48.484375 72.75 52.59375 71.296875 
z
" id="DejaVuSans-54"/>
      </defs>
      <g transform="translate(600.501226 648.397656)scale(0.15 -0.15)">
       <use xlink:href="#DejaVuSans-54"/>
       <use x="63.623047" xlink:href="#DejaVuSans-48"/>
      </g>
     </g>
    </g>
    <g id="xtick_5">
     <g id="line2d_5">
      <g>
       <use style="stroke:#000000;stroke-width:0.8;" x="759.556938" xlink:href="#mf7bf0bd807" y="630"/>
      </g>
     </g>
     <g id="text_5">
      <!-- 80 -->
      <defs>
       <path d="M 31.78125 34.625 
Q 24.75 34.625 20.71875 30.859375 
Q 16.703125 27.09375 16.703125 20.515625 
Q 16.703125 13.921875 20.71875 10.15625 
Q 24.75 6.390625 31.78125 6.390625 
Q 38.8125 6.390625 42.859375 10.171875 
Q 46.921875 13.96875 46.921875 20.515625 
Q 46.921875 27.09375 42.890625 30.859375 
Q 38.875 34.625 31.78125 34.625 
z
M 21.921875 38.8125 
Q 15.578125 40.375 12.03125 44.71875 
Q 8.5 49.078125 8.5 55.328125 
Q 8.5 64.0625 14.71875 69.140625 
Q 20.953125 74.21875 31.78125 74.21875 
Q 42.671875 74.21875 48.875 69.140625 
Q 55.078125 64.0625 55.078125 55.328125 
Q 55.078125 49.078125 51.53125 44.71875 
Q 48 40.375 41.703125 38.8125 
Q 48.828125 37.15625 52.796875 32.3125 
Q 56.78125 27.484375 56.78125 20.515625 
Q 56.78125 9.90625 50.3125 4.234375 
Q 43.84375 -1.421875 31.78125 -1.421875 
Q 19.734375 -1.421875 13.25 4.234375 
Q 6.78125 9.90625 6.78125 20.515625 
Q 6.78125 27.484375 10.78125 32.3125 
Q 14.796875 37.15625 21.921875 38.8125 
z
M 18.3125 54.390625 
Q 18.3125 48.734375 21.84375 45.5625 
Q 25.390625 42.390625 31.78125 42.390625 
Q 38.140625 42.390625 41.71875 45.5625 
Q 45.3125 48.734375 45.3125 54.390625 
Q 45.3125 60.0625 41.71875 63.234375 
Q 38.140625 66.40625 31.78125 66.40625 
Q 25.390625 66.40625 21.84375 63.234375 
Q 18.3125 60.0625 18.3125 54.390625 
z
" id="DejaVuSans-56"/>
      </defs>
      <g transform="translate(750.013188 648.397656)scale(0.15 -0.15)">
       <use xlink:href="#DejaVuSans-56"/>
       <use x="63.623047" xlink:href="#DejaVuSans-48"/>
      </g>
     </g>
    </g>
   </g>
   <g id="matplotlib.axis_2">
    <g id="ytick_1">
     <g id="line2d_6">
      <defs>
       <path d="M 0 0 
L -3.5 0 
" id="m5ffc4080ed" style="stroke:#000000;stroke-width:0.8;"/>
      </defs>
      <g>
       <use style="stroke:#000000;stroke-width:0.8;" x="126" xlink:href="#m5ffc4080ed" y="560.753215"/>
      </g>
     </g>
     <g id="text_6">
      <!-- 6 -->
      <g transform="translate(109.45625 566.452043)scale(0.15 -0.15)">
       <use xlink:href="#DejaVuSans-54"/>
      </g>
     </g>
    </g>
    <g id="ytick_2">
     <g id="line2d_7">
      <g>
       <use style="stroke:#000000;stroke-width:0.8;" x="126" xlink:href="#m5ffc4080ed" y="459.761419"/>
      </g>
     </g>
     <g id="text_7">
      <!-- 8 -->
      <g transform="translate(109.45625 465.460247)scale(0.15 -0.15)">
       <use xlink:href="#DejaVuSans-56"/>
      </g>
     </g>
    </g>
    <g id="ytick_3">
     <g id="line2d_8">
      <g>
       <use style="stroke:#000000;stroke-width:0.8;" x="126" xlink:href="#m5ffc4080ed" y="358.769623"/>
      </g>
     </g>
     <g id="text_8">
      <!-- 10 -->
      <defs>
       <path d="M 12.40625 8.296875 
L 28.515625 8.296875 
L 28.515625 63.921875 
L 10.984375 60.40625 
L 10.984375 69.390625 
L 28.421875 72.90625 
L 38.28125 72.90625 
L 38.28125 8.296875 
L 54.390625 8.296875 
L 54.390625 0 
L 12.40625 0 
z
" id="DejaVuSans-49"/>
      </defs>
      <g transform="translate(99.9125 364.468451)scale(0.15 -0.15)">
       <use xlink:href="#DejaVuSans-49"/>
       <use x="63.623047" xlink:href="#DejaVuSans-48"/>
      </g>
     </g>
    </g>
    <g id="ytick_4">
     <g id="line2d_9">
      <g>
       <use style="stroke:#000000;stroke-width:0.8;" x="126" xlink:href="#m5ffc4080ed" y="257.777827"/>
      </g>
     </g>
     <g id="text_9">
      <!-- 12 -->
      <g transform="translate(99.9125 263.476655)scale(0.15 -0.15)">
       <use xlink:href="#DejaVuSans-49"/>
       <use x="63.623047" xlink:href="#DejaVuSans-50"/>
      </g>
     </g>
    </g>
    <g id="ytick_5">
     <g id="line2d_10">
      <g>
       <use style="stroke:#000000;stroke-width:0.8;" x="126" xlink:href="#m5ffc4080ed" y="156.786031"/>
      </g>
     </g>
     <g id="text_10">
      <!-- 14 -->
      <g transform="translate(99.9125 162.484859)scale(0.15 -0.15)">
       <use xlink:href="#DejaVuSans-49"/>
       <use x="63.623047" xlink:href="#DejaVuSans-52"/>
      </g>
     </g>
    </g>
   </g>
   <g id="line2d_11">
    <path clip-path="url(#p13eedca5b8)" d="M 161.509091 605.290909 
L 168.984689 591.602586 
L 176.460287 582.166045 
L 183.935885 574.711033 
L 191.411483 567.927008 
L 198.887081 562.983246 
L 206.362679 554.56783 
L 213.838278 551.246649 
L 221.313876 500.7814 
L 228.789474 497.637102 
L 236.265072 494.948473 
L 243.74067 492.78522 
L 251.216268 490.492453 
L 258.691866 485.122393 
L 266.167464 474.576263 
L 273.643062 473.519778 
L 281.11866 471.706406 
L 288.594258 470.372195 
L 296.069856 466.64647 
L 303.545455 465.305454 
L 311.021053 464.350376 
L 318.496651 463.267558 
L 325.972249 461.326197 
L 333.447847 460.11769 
L 340.923445 456.672516 
L 348.399043 455.631652 
L 355.874641 454.734336 
L 363.350239 453.283291 
L 370.825837 450.98233 
L 378.301435 450.98233 
L 385.777033 446.699064 
L 393.252632 445.586661 
L 400.72823 441.402337 
L 408.203828 439.700262 
L 415.679426 437.364132 
L 423.155024 435.371105 
L 430.630622 433.182846 
L 438.10622 429.219596 
L 445.581818 427.393423 
L 453.057416 425.622378 
L 460.533014 424.019738 
L 468.008612 422.539296 
L 475.484211 419.786945 
L 482.959809 418.693622 
L 490.435407 417.388707 
L 497.911005 416.302576 
L 505.386603 415.379798 
L 512.862201 414.591165 
L 520.337799 413.569764 
L 527.813397 412.888971 
L 535.288995 412.356169 
L 542.764593 411.887969 
L 550.240191 411.626095 
L 557.715789 411.48264 
L 565.191388 410.816381 
L 572.666986 410.464179 
L 580.142584 410.228619 
L 587.618182 409.622509 
L 595.09378 409.216214 
L 602.569378 409.06702 
L 610.044976 408.689791 
L 617.520574 408.572867 
L 624.996172 408.419431 
L 632.47177 408.083503 
L 639.947368 407.986196 
L 647.422967 407.725611 
L 654.898565 407.574723 
L 662.374163 407.490423 
L 669.849761 407.466363 
L 677.325359 407.46035 
L 684.800957 407.454337 
L 692.276555 407.352234 
L 699.752153 407.298263 
L 707.227751 407.268304 
L 714.703349 407.20844 
L 722.178947 407.154622 
L 729.654545 407.118775 
L 737.130144 407.094892 
L 744.605742 407.088923 
L 752.08134 407.106832 
L 759.556938 407.112803 
L 767.032536 407.124748 
L 774.508134 407.130721 
L 781.983732 407.118775 
L 789.45933 407.14267 
L 796.934928 407.178534 
L 804.410526 407.166577 
L 811.886124 407.20844 
L 819.361722 407.226392 
L 826.837321 407.24435 
L 834.312919 407.24435 
L 841.788517 407.24435 
L 849.264115 407.262315 
L 856.739713 407.262315 
L 864.215311 407.256326 
L 871.690909 407.256326 
" style="fill:none;stroke:#1f77b4;stroke-linecap:square;stroke-width:1.5;"/>
    <defs>
     <path d="M 0 3 
C 0.795609 3 1.55874 2.683901 2.12132 2.12132 
C 2.683901 1.55874 3 0.795609 3 0 
C 3 -0.795609 2.683901 -1.55874 2.12132 -2.12132 
C 1.55874 -2.683901 0.795609 -3 0 -3 
C -0.795609 -3 -1.55874 -2.683901 -2.12132 -2.12132 
C -2.683901 -1.55874 -3 -0.795609 -3 0 
C -3 0.795609 -2.683901 1.55874 -2.12132 2.12132 
C -1.55874 2.683901 -0.795609 3 0 3 
z
" id="m6fdda9195a" style="stroke:#1f77b4;"/>
    </defs>
    <g clip-path="url(#p13eedca5b8)">
     <use style="fill:#1f77b4;stroke:#1f77b4;" x="161.509091" xlink:href="#m6fdda9195a" y="605.290909"/>
     <use style="fill:#1f77b4;stroke:#1f77b4;" x="168.984689" xlink:href="#m6fdda9195a" y="591.602586"/>
     <use style="fill:#1f77b4;stroke:#1f77b4;" x="176.460287" xlink:href="#m6fdda9195a" y="582.166045"/>
     <use style="fill:#1f77b4;stroke:#1f77b4;" x="183.935885" xlink:href="#m6fdda9195a" y="574.711033"/>
     <use style="fill:#1f77b4;stroke:#1f77b4;" x="191.411483" xlink:href="#m6fdda9195a" y="567.927008"/>
     <use style="fill:#1f77b4;stroke:#1f77b4;" x="198.887081" xlink:href="#m6fdda9195a" y="562.983246"/>
     <use style="fill:#1f77b4;stroke:#1f77b4;" x="206.362679" xlink:href="#m6fdda9195a" y="554.56783"/>
     <use style="fill:#1f77b4;stroke:#1f77b4;" x="213.838278" xlink:href="#m6fdda9195a" y="551.246649"/>
     <use style="fill:#1f77b4;stroke:#1f77b4;" x="221.313876" xlink:href="#m6fdda9195a" y="500.7814"/>
     <use style="fill:#1f77b4;stroke:#1f77b4;" x="228.789474" xlink:href="#m6fdda9195a" y="497.637102"/>
     <use style="fill:#1f77b4;stroke:#1f77b4;" x="236.265072" xlink:href="#m6fdda9195a" y="494.948473"/>
     <use style="fill:#1f77b4;stroke:#1f77b4;" x="243.74067" xlink:href="#m6fdda9195a" y="492.78522"/>
     <use style="fill:#1f77b4;stroke:#1f77b4;" x="251.216268" xlink:href="#m6fdda9195a" y="490.492453"/>
     <use style="fill:#1f77b4;stroke:#1f77b4;" x="258.691866" xlink:href="#m6fdda9195a" y="485.122393"/>
     <use style="fill:#1f77b4;stroke:#1f77b4;" x="266.167464" xlink:href="#m6fdda9195a" y="474.576263"/>
     <use style="fill:#1f77b4;stroke:#1f77b4;" x="273.643062" xlink:href="#m6fdda9195a" y="473.519778"/>
     <use style="fill:#1f77b4;stroke:#1f77b4;" x="281.11866" xlink:href="#m6fdda9195a" y="471.706406"/>
     <use style="fill:#1f77b4;stroke:#1f77b4;" x="288.594258" xlink:href="#m6fdda9195a" y="470.372195"/>
     <use style="fill:#1f77b4;stroke:#1f77b4;" x="296.069856" xlink:href="#m6fdda9195a" y="466.64647"/>
     <use style="fill:#1f77b4;stroke:#1f77b4;" x="303.545455" xlink:href="#m6fdda9195a" y="465.305454"/>
     <use style="fill:#1f77b4;stroke:#1f77b4;" x="311.021053" xlink:href="#m6fdda9195a" y="464.350376"/>
     <use style="fill:#1f77b4;stroke:#1f77b4;" x="318.496651" xlink:href="#m6fdda9195a" y="463.267558"/>
     <use style="fill:#1f77b4;stroke:#1f77b4;" x="325.972249" xlink:href="#m6fdda9195a" y="461.326197"/>
     <use style="fill:#1f77b4;stroke:#1f77b4;" x="333.447847" xlink:href="#m6fdda9195a" y="460.11769"/>
     <use style="fill:#1f77b4;stroke:#1f77b4;" x="340.923445" xlink:href="#m6fdda9195a" y="456.672516"/>
     <use style="fill:#1f77b4;stroke:#1f77b4;" x="348.399043" xlink:href="#m6fdda9195a" y="455.631652"/>
     <use style="fill:#1f77b4;stroke:#1f77b4;" x="355.874641" xlink:href="#m6fdda9195a" y="454.734336"/>
     <use style="fill:#1f77b4;stroke:#1f77b4;" x="363.350239" xlink:href="#m6fdda9195a" y="453.283291"/>
     <use style="fill:#1f77b4;stroke:#1f77b4;" x="370.825837" xlink:href="#m6fdda9195a" y="450.98233"/>
     <use style="fill:#1f77b4;stroke:#1f77b4;" x="378.301435" xlink:href="#m6fdda9195a" y="450.98233"/>
     <use style="fill:#1f77b4;stroke:#1f77b4;" x="385.777033" xlink:href="#m6fdda9195a" y="446.699064"/>
     <use style="fill:#1f77b4;stroke:#1f77b4;" x="393.252632" xlink:href="#m6fdda9195a" y="445.586661"/>
     <use style="fill:#1f77b4;stroke:#1f77b4;" x="400.72823" xlink:href="#m6fdda9195a" y="441.402337"/>
     <use style="fill:#1f77b4;stroke:#1f77b4;" x="408.203828" xlink:href="#m6fdda9195a" y="439.700262"/>
     <use style="fill:#1f77b4;stroke:#1f77b4;" x="415.679426" xlink:href="#m6fdda9195a" y="437.364132"/>
     <use style="fill:#1f77b4;stroke:#1f77b4;" x="423.155024" xlink:href="#m6fdda9195a" y="435.371105"/>
     <use style="fill:#1f77b4;stroke:#1f77b4;" x="430.630622" xlink:href="#m6fdda9195a" y="433.182846"/>
     <use style="fill:#1f77b4;stroke:#1f77b4;" x="438.10622" xlink:href="#m6fdda9195a" y="429.219596"/>
     <use style="fill:#1f77b4;stroke:#1f77b4;" x="445.581818" xlink:href="#m6fdda9195a" y="427.393423"/>
     <use style="fill:#1f77b4;stroke:#1f77b4;" x="453.057416" xlink:href="#m6fdda9195a" y="425.622378"/>
     <use style="fill:#1f77b4;stroke:#1f77b4;" x="460.533014" xlink:href="#m6fdda9195a" y="424.019738"/>
     <use style="fill:#1f77b4;stroke:#1f77b4;" x="468.008612" xlink:href="#m6fdda9195a" y="422.539296"/>
     <use style="fill:#1f77b4;stroke:#1f77b4;" x="475.484211" xlink:href="#m6fdda9195a" y="419.786945"/>
     <use style="fill:#1f77b4;stroke:#1f77b4;" x="482.959809" xlink:href="#m6fdda9195a" y="418.693622"/>
     <use style="fill:#1f77b4;stroke:#1f77b4;" x="490.435407" xlink:href="#m6fdda9195a" y="417.388707"/>
     <use style="fill:#1f77b4;stroke:#1f77b4;" x="497.911005" xlink:href="#m6fdda9195a" y="416.302576"/>
     <use style="fill:#1f77b4;stroke:#1f77b4;" x="505.386603" xlink:href="#m6fdda9195a" y="415.379798"/>
     <use style="fill:#1f77b4;stroke:#1f77b4;" x="512.862201" xlink:href="#m6fdda9195a" y="414.591165"/>
     <use style="fill:#1f77b4;stroke:#1f77b4;" x="520.337799" xlink:href="#m6fdda9195a" y="413.569764"/>
     <use style="fill:#1f77b4;stroke:#1f77b4;" x="527.813397" xlink:href="#m6fdda9195a" y="412.888971"/>
     <use style="fill:#1f77b4;stroke:#1f77b4;" x="535.288995" xlink:href="#m6fdda9195a" y="412.356169"/>
     <use style="fill:#1f77b4;stroke:#1f77b4;" x="542.764593" xlink:href="#m6fdda9195a" y="411.887969"/>
     <use style="fill:#1f77b4;stroke:#1f77b4;" x="550.240191" xlink:href="#m6fdda9195a" y="411.626095"/>
     <use style="fill:#1f77b4;stroke:#1f77b4;" x="557.715789" xlink:href="#m6fdda9195a" y="411.48264"/>
     <use style="fill:#1f77b4;stroke:#1f77b4;" x="565.191388" xlink:href="#m6fdda9195a" y="410.816381"/>
     <use style="fill:#1f77b4;stroke:#1f77b4;" x="572.666986" xlink:href="#m6fdda9195a" y="410.464179"/>
     <use style="fill:#1f77b4;stroke:#1f77b4;" x="580.142584" xlink:href="#m6fdda9195a" y="410.228619"/>
     <use style="fill:#1f77b4;stroke:#1f77b4;" x="587.618182" xlink:href="#m6fdda9195a" y="409.622509"/>
     <use style="fill:#1f77b4;stroke:#1f77b4;" x="595.09378" xlink:href="#m6fdda9195a" y="409.216214"/>
     <use style="fill:#1f77b4;stroke:#1f77b4;" x="602.569378" xlink:href="#m6fdda9195a" y="409.06702"/>
     <use style="fill:#1f77b4;stroke:#1f77b4;" x="610.044976" xlink:href="#m6fdda9195a" y="408.689791"/>
     <use style="fill:#1f77b4;stroke:#1f77b4;" x="617.520574" xlink:href="#m6fdda9195a" y="408.572867"/>
     <use style="fill:#1f77b4;stroke:#1f77b4;" x="624.996172" xlink:href="#m6fdda9195a" y="408.419431"/>
     <use style="fill:#1f77b4;stroke:#1f77b4;" x="632.47177" xlink:href="#m6fdda9195a" y="408.083503"/>
     <use style="fill:#1f77b4;stroke:#1f77b4;" x="639.947368" xlink:href="#m6fdda9195a" y="407.986196"/>
     <use style="fill:#1f77b4;stroke:#1f77b4;" x="647.422967" xlink:href="#m6fdda9195a" y="407.725611"/>
     <use style="fill:#1f77b4;stroke:#1f77b4;" x="654.898565" xlink:href="#m6fdda9195a" y="407.574723"/>
     <use style="fill:#1f77b4;stroke:#1f77b4;" x="662.374163" xlink:href="#m6fdda9195a" y="407.490423"/>
     <use style="fill:#1f77b4;stroke:#1f77b4;" x="669.849761" xlink:href="#m6fdda9195a" y="407.466363"/>
     <use style="fill:#1f77b4;stroke:#1f77b4;" x="677.325359" xlink:href="#m6fdda9195a" y="407.46035"/>
     <use style="fill:#1f77b4;stroke:#1f77b4;" x="684.800957" xlink:href="#m6fdda9195a" y="407.454337"/>
     <use style="fill:#1f77b4;stroke:#1f77b4;" x="692.276555" xlink:href="#m6fdda9195a" y="407.352234"/>
     <use style="fill:#1f77b4;stroke:#1f77b4;" x="699.752153" xlink:href="#m6fdda9195a" y="407.298263"/>
     <use style="fill:#1f77b4;stroke:#1f77b4;" x="707.227751" xlink:href="#m6fdda9195a" y="407.268304"/>
     <use style="fill:#1f77b4;stroke:#1f77b4;" x="714.703349" xlink:href="#m6fdda9195a" y="407.20844"/>
     <use style="fill:#1f77b4;stroke:#1f77b4;" x="722.178947" xlink:href="#m6fdda9195a" y="407.154622"/>
     <use style="fill:#1f77b4;stroke:#1f77b4;" x="729.654545" xlink:href="#m6fdda9195a" y="407.118775"/>
     <use style="fill:#1f77b4;stroke:#1f77b4;" x="737.130144" xlink:href="#m6fdda9195a" y="407.094892"/>
     <use style="fill:#1f77b4;stroke:#1f77b4;" x="744.605742" xlink:href="#m6fdda9195a" y="407.088923"/>
     <use style="fill:#1f77b4;stroke:#1f77b4;" x="752.08134" xlink:href="#m6fdda9195a" y="407.106832"/>
     <use style="fill:#1f77b4;stroke:#1f77b4;" x="759.556938" xlink:href="#m6fdda9195a" y="407.112803"/>
     <use style="fill:#1f77b4;stroke:#1f77b4;" x="767.032536" xlink:href="#m6fdda9195a" y="407.124748"/>
     <use style="fill:#1f77b4;stroke:#1f77b4;" x="774.508134" xlink:href="#m6fdda9195a" y="407.130721"/>
     <use style="fill:#1f77b4;stroke:#1f77b4;" x="781.983732" xlink:href="#m6fdda9195a" y="407.118775"/>
     <use style="fill:#1f77b4;stroke:#1f77b4;" x="789.45933" xlink:href="#m6fdda9195a" y="407.14267"/>
     <use style="fill:#1f77b4;stroke:#1f77b4;" x="796.934928" xlink:href="#m6fdda9195a" y="407.178534"/>
     <use style="fill:#1f77b4;stroke:#1f77b4;" x="804.410526" xlink:href="#m6fdda9195a" y="407.166577"/>
     <use style="fill:#1f77b4;stroke:#1f77b4;" x="811.886124" xlink:href="#m6fdda9195a" y="407.20844"/>
     <use style="fill:#1f77b4;stroke:#1f77b4;" x="819.361722" xlink:href="#m6fdda9195a" y="407.226392"/>
     <use style="fill:#1f77b4;stroke:#1f77b4;" x="826.837321" xlink:href="#m6fdda9195a" y="407.24435"/>
     <use style="fill:#1f77b4;stroke:#1f77b4;" x="834.312919" xlink:href="#m6fdda9195a" y="407.24435"/>
     <use style="fill:#1f77b4;stroke:#1f77b4;" x="841.788517" xlink:href="#m6fdda9195a" y="407.24435"/>
     <use style="fill:#1f77b4;stroke:#1f77b4;" x="849.264115" xlink:href="#m6fdda9195a" y="407.262315"/>
     <use style="fill:#1f77b4;stroke:#1f77b4;" x="856.739713" xlink:href="#m6fdda9195a" y="407.262315"/>
     <use style="fill:#1f77b4;stroke:#1f77b4;" x="864.215311" xlink:href="#m6fdda9195a" y="407.256326"/>
     <use style="fill:#1f77b4;stroke:#1f77b4;" x="871.690909" xlink:href="#m6fdda9195a" y="407.256326"/>
    </g>
   </g>
   <g id="line2d_12">
    <path clip-path="url(#p13eedca5b8)" d="M 161.509091 544.646633 
L 168.984689 536.358275 
L 176.460287 517.98606 
L 183.935885 496.713154 
L 191.411483 477.019527 
L 198.887081 460.683813 
L 206.362679 428.121418 
L 213.838278 423.060717 
L 221.313876 408.456213 
L 228.789474 399.014167 
L 236.265072 389.278053 
L 243.74067 372.486326 
L 251.216268 363.944453 
L 258.691866 354.664359 
L 266.167464 347.315216 
L 273.643062 341.849702 
L 281.11866 336.271166 
L 288.594258 332.415249 
L 296.069856 328.453011 
L 303.545455 325.270385 
L 311.021053 322.917128 
L 318.496651 320.790636 
L 325.972249 307.858929 
L 333.447847 302.682314 
L 340.923445 301.088337 
L 348.399043 299.508388 
L 355.874641 298.086544 
L 363.350239 296.808374 
L 370.825837 296.471455 
L 378.301435 296.100306 
L 385.777033 295.689779 
L 393.252632 294.55042 
L 400.72823 294.302957 
L 408.203828 293.918786 
L 415.679426 293.385308 
L 423.155024 292.772336 
L 430.630622 291.936739 
L 438.10622 291.109941 
L 445.581818 289.982572 
L 453.057416 288.616858 
L 460.533014 287.521972 
L 468.008612 286.124565 
L 475.484211 284.89945 
L 482.959809 283.452021 
L 490.435407 281.471754 
L 497.911005 279.50369 
L 505.386603 277.642557 
L 512.862201 275.938639 
L 520.337799 273.75067 
L 527.813397 270.753019 
L 535.288995 269.768998 
L 542.764593 263.539317 
L 550.240191 259.885601 
L 557.715789 256.340513 
L 565.191388 252.252638 
L 572.666986 248.109042 
L 580.142584 243.762165 
L 587.618182 237.627661 
L 595.09378 231.806688 
L 602.569378 226.144704 
L 610.044976 221.032026 
L 617.520574 215.196636 
L 624.996172 210.143289 
L 632.47177 204.480323 
L 639.947368 198.199722 
L 647.422967 192.464398 
L 654.898565 187.030824 
L 662.374163 182.680281 
L 669.849761 178.493847 
L 677.325359 173.865698 
L 684.800957 169.632308 
L 692.276555 165.433626 
L 699.752153 161.487182 
L 707.227751 157.921881 
L 714.703349 154.855087 
L 722.178947 152.039556 
L 729.654545 149.252748 
L 737.130144 146.31223 
L 744.605742 143.47669 
L 752.08134 140.585155 
L 759.556938 138.259521 
L 767.032536 135.456495 
L 774.508134 133.562667 
L 781.983732 131.73117 
L 789.45933 129.729688 
L 796.934928 127.415712 
L 804.410526 125.397636 
L 811.886124 123.677894 
L 819.361722 121.892875 
L 826.837321 120.417299 
L 834.312919 118.871032 
L 841.788517 117.407005 
L 849.264115 115.80262 
L 856.739713 113.939506 
L 864.215311 112.39528 
L 871.690909 111.109091 
" style="fill:none;stroke:#ff7f0e;stroke-linecap:square;stroke-width:1.5;"/>
    <defs>
     <path d="M 0 3 
C 0.795609 3 1.55874 2.683901 2.12132 2.12132 
C 2.683901 1.55874 3 0.795609 3 0 
C 3 -0.795609 2.683901 -1.55874 2.12132 -2.12132 
C 1.55874 -2.683901 0.795609 -3 0 -3 
C -0.795609 -3 -1.55874 -2.683901 -2.12132 -2.12132 
C -2.683901 -1.55874 -3 -0.795609 -3 0 
C -3 0.795609 -2.683901 1.55874 -2.12132 2.12132 
C -1.55874 2.683901 -0.795609 3 0 3 
z
" id="m8ba0964cd8" style="stroke:#ff7f0e;"/>
    </defs>
    <g clip-path="url(#p13eedca5b8)">
     <use style="fill:#ff7f0e;stroke:#ff7f0e;" x="161.509091" xlink:href="#m8ba0964cd8" y="544.646633"/>
     <use style="fill:#ff7f0e;stroke:#ff7f0e;" x="168.984689" xlink:href="#m8ba0964cd8" y="536.358275"/>
     <use style="fill:#ff7f0e;stroke:#ff7f0e;" x="176.460287" xlink:href="#m8ba0964cd8" y="517.98606"/>
     <use style="fill:#ff7f0e;stroke:#ff7f0e;" x="183.935885" xlink:href="#m8ba0964cd8" y="496.713154"/>
     <use style="fill:#ff7f0e;stroke:#ff7f0e;" x="191.411483" xlink:href="#m8ba0964cd8" y="477.019527"/>
     <use style="fill:#ff7f0e;stroke:#ff7f0e;" x="198.887081" xlink:href="#m8ba0964cd8" y="460.683813"/>
     <use style="fill:#ff7f0e;stroke:#ff7f0e;" x="206.362679" xlink:href="#m8ba0964cd8" y="428.121418"/>
     <use style="fill:#ff7f0e;stroke:#ff7f0e;" x="213.838278" xlink:href="#m8ba0964cd8" y="423.060717"/>
     <use style="fill:#ff7f0e;stroke:#ff7f0e;" x="221.313876" xlink:href="#m8ba0964cd8" y="408.456213"/>
     <use style="fill:#ff7f0e;stroke:#ff7f0e;" x="228.789474" xlink:href="#m8ba0964cd8" y="399.014167"/>
     <use style="fill:#ff7f0e;stroke:#ff7f0e;" x="236.265072" xlink:href="#m8ba0964cd8" y="389.278053"/>
     <use style="fill:#ff7f0e;stroke:#ff7f0e;" x="243.74067" xlink:href="#m8ba0964cd8" y="372.486326"/>
     <use style="fill:#ff7f0e;stroke:#ff7f0e;" x="251.216268" xlink:href="#m8ba0964cd8" y="363.944453"/>
     <use style="fill:#ff7f0e;stroke:#ff7f0e;" x="258.691866" xlink:href="#m8ba0964cd8" y="354.664359"/>
     <use style="fill:#ff7f0e;stroke:#ff7f0e;" x="266.167464" xlink:href="#m8ba0964cd8" y="347.315216"/>
     <use style="fill:#ff7f0e;stroke:#ff7f0e;" x="273.643062" xlink:href="#m8ba0964cd8" y="341.849702"/>
     <use style="fill:#ff7f0e;stroke:#ff7f0e;" x="281.11866" xlink:href="#m8ba0964cd8" y="336.271166"/>
     <use style="fill:#ff7f0e;stroke:#ff7f0e;" x="288.594258" xlink:href="#m8ba0964cd8" y="332.415249"/>
     <use style="fill:#ff7f0e;stroke:#ff7f0e;" x="296.069856" xlink:href="#m8ba0964cd8" y="328.453011"/>
     <use style="fill:#ff7f0e;stroke:#ff7f0e;" x="303.545455" xlink:href="#m8ba0964cd8" y="325.270385"/>
     <use style="fill:#ff7f0e;stroke:#ff7f0e;" x="311.021053" xlink:href="#m8ba0964cd8" y="322.917128"/>
     <use style="fill:#ff7f0e;stroke:#ff7f0e;" x="318.496651" xlink:href="#m8ba0964cd8" y="320.790636"/>
     <use style="fill:#ff7f0e;stroke:#ff7f0e;" x="325.972249" xlink:href="#m8ba0964cd8" y="307.858929"/>
     <use style="fill:#ff7f0e;stroke:#ff7f0e;" x="333.447847" xlink:href="#m8ba0964cd8" y="302.682314"/>
     <use style="fill:#ff7f0e;stroke:#ff7f0e;" x="340.923445" xlink:href="#m8ba0964cd8" y="301.088337"/>
     <use style="fill:#ff7f0e;stroke:#ff7f0e;" x="348.399043" xlink:href="#m8ba0964cd8" y="299.508388"/>
     <use style="fill:#ff7f0e;stroke:#ff7f0e;" x="355.874641" xlink:href="#m8ba0964cd8" y="298.086544"/>
     <use style="fill:#ff7f0e;stroke:#ff7f0e;" x="363.350239" xlink:href="#m8ba0964cd8" y="296.808374"/>
     <use style="fill:#ff7f0e;stroke:#ff7f0e;" x="370.825837" xlink:href="#m8ba0964cd8" y="296.471455"/>
     <use style="fill:#ff7f0e;stroke:#ff7f0e;" x="378.301435" xlink:href="#m8ba0964cd8" y="296.100306"/>
     <use style="fill:#ff7f0e;stroke:#ff7f0e;" x="385.777033" xlink:href="#m8ba0964cd8" y="295.689779"/>
     <use style="fill:#ff7f0e;stroke:#ff7f0e;" x="393.252632" xlink:href="#m8ba0964cd8" y="294.55042"/>
     <use style="fill:#ff7f0e;stroke:#ff7f0e;" x="400.72823" xlink:href="#m8ba0964cd8" y="294.302957"/>
     <use style="fill:#ff7f0e;stroke:#ff7f0e;" x="408.203828" xlink:href="#m8ba0964cd8" y="293.918786"/>
     <use style="fill:#ff7f0e;stroke:#ff7f0e;" x="415.679426" xlink:href="#m8ba0964cd8" y="293.385308"/>
     <use style="fill:#ff7f0e;stroke:#ff7f0e;" x="423.155024" xlink:href="#m8ba0964cd8" y="292.772336"/>
     <use style="fill:#ff7f0e;stroke:#ff7f0e;" x="430.630622" xlink:href="#m8ba0964cd8" y="291.936739"/>
     <use style="fill:#ff7f0e;stroke:#ff7f0e;" x="438.10622" xlink:href="#m8ba0964cd8" y="291.109941"/>
     <use style="fill:#ff7f0e;stroke:#ff7f0e;" x="445.581818" xlink:href="#m8ba0964cd8" y="289.982572"/>
     <use style="fill:#ff7f0e;stroke:#ff7f0e;" x="453.057416" xlink:href="#m8ba0964cd8" y="288.616858"/>
     <use style="fill:#ff7f0e;stroke:#ff7f0e;" x="460.533014" xlink:href="#m8ba0964cd8" y="287.521972"/>
     <use style="fill:#ff7f0e;stroke:#ff7f0e;" x="468.008612" xlink:href="#m8ba0964cd8" y="286.124565"/>
     <use style="fill:#ff7f0e;stroke:#ff7f0e;" x="475.484211" xlink:href="#m8ba0964cd8" y="284.89945"/>
     <use style="fill:#ff7f0e;stroke:#ff7f0e;" x="482.959809" xlink:href="#m8ba0964cd8" y="283.452021"/>
     <use style="fill:#ff7f0e;stroke:#ff7f0e;" x="490.435407" xlink:href="#m8ba0964cd8" y="281.471754"/>
     <use style="fill:#ff7f0e;stroke:#ff7f0e;" x="497.911005" xlink:href="#m8ba0964cd8" y="279.50369"/>
     <use style="fill:#ff7f0e;stroke:#ff7f0e;" x="505.386603" xlink:href="#m8ba0964cd8" y="277.642557"/>
     <use style="fill:#ff7f0e;stroke:#ff7f0e;" x="512.862201" xlink:href="#m8ba0964cd8" y="275.938639"/>
     <use style="fill:#ff7f0e;stroke:#ff7f0e;" x="520.337799" xlink:href="#m8ba0964cd8" y="273.75067"/>
     <use style="fill:#ff7f0e;stroke:#ff7f0e;" x="527.813397" xlink:href="#m8ba0964cd8" y="270.753019"/>
     <use style="fill:#ff7f0e;stroke:#ff7f0e;" x="535.288995" xlink:href="#m8ba0964cd8" y="269.768998"/>
     <use style="fill:#ff7f0e;stroke:#ff7f0e;" x="542.764593" xlink:href="#m8ba0964cd8" y="263.539317"/>
     <use style="fill:#ff7f0e;stroke:#ff7f0e;" x="550.240191" xlink:href="#m8ba0964cd8" y="259.885601"/>
     <use style="fill:#ff7f0e;stroke:#ff7f0e;" x="557.715789" xlink:href="#m8ba0964cd8" y="256.340513"/>
     <use style="fill:#ff7f0e;stroke:#ff7f0e;" x="565.191388" xlink:href="#m8ba0964cd8" y="252.252638"/>
     <use style="fill:#ff7f0e;stroke:#ff7f0e;" x="572.666986" xlink:href="#m8ba0964cd8" y="248.109042"/>
     <use style="fill:#ff7f0e;stroke:#ff7f0e;" x="580.142584" xlink:href="#m8ba0964cd8" y="243.762165"/>
     <use style="fill:#ff7f0e;stroke:#ff7f0e;" x="587.618182" xlink:href="#m8ba0964cd8" y="237.627661"/>
     <use style="fill:#ff7f0e;stroke:#ff7f0e;" x="595.09378" xlink:href="#m8ba0964cd8" y="231.806688"/>
     <use style="fill:#ff7f0e;stroke:#ff7f0e;" x="602.569378" xlink:href="#m8ba0964cd8" y="226.144704"/>
     <use style="fill:#ff7f0e;stroke:#ff7f0e;" x="610.044976" xlink:href="#m8ba0964cd8" y="221.032026"/>
     <use style="fill:#ff7f0e;stroke:#ff7f0e;" x="617.520574" xlink:href="#m8ba0964cd8" y="215.196636"/>
     <use style="fill:#ff7f0e;stroke:#ff7f0e;" x="624.996172" xlink:href="#m8ba0964cd8" y="210.143289"/>
     <use style="fill:#ff7f0e;stroke:#ff7f0e;" x="632.47177" xlink:href="#m8ba0964cd8" y="204.480323"/>
     <use style="fill:#ff7f0e;stroke:#ff7f0e;" x="639.947368" xlink:href="#m8ba0964cd8" y="198.199722"/>
     <use style="fill:#ff7f0e;stroke:#ff7f0e;" x="647.422967" xlink:href="#m8ba0964cd8" y="192.464398"/>
     <use style="fill:#ff7f0e;stroke:#ff7f0e;" x="654.898565" xlink:href="#m8ba0964cd8" y="187.030824"/>
     <use style="fill:#ff7f0e;stroke:#ff7f0e;" x="662.374163" xlink:href="#m8ba0964cd8" y="182.680281"/>
     <use style="fill:#ff7f0e;stroke:#ff7f0e;" x="669.849761" xlink:href="#m8ba0964cd8" y="178.493847"/>
     <use style="fill:#ff7f0e;stroke:#ff7f0e;" x="677.325359" xlink:href="#m8ba0964cd8" y="173.865698"/>
     <use style="fill:#ff7f0e;stroke:#ff7f0e;" x="684.800957" xlink:href="#m8ba0964cd8" y="169.632308"/>
     <use style="fill:#ff7f0e;stroke:#ff7f0e;" x="692.276555" xlink:href="#m8ba0964cd8" y="165.433626"/>
     <use style="fill:#ff7f0e;stroke:#ff7f0e;" x="699.752153" xlink:href="#m8ba0964cd8" y="161.487182"/>
     <use style="fill:#ff7f0e;stroke:#ff7f0e;" x="707.227751" xlink:href="#m8ba0964cd8" y="157.921881"/>
     <use style="fill:#ff7f0e;stroke:#ff7f0e;" x="714.703349" xlink:href="#m8ba0964cd8" y="154.855087"/>
     <use style="fill:#ff7f0e;stroke:#ff7f0e;" x="722.178947" xlink:href="#m8ba0964cd8" y="152.039556"/>
     <use style="fill:#ff7f0e;stroke:#ff7f0e;" x="729.654545" xlink:href="#m8ba0964cd8" y="149.252748"/>
     <use style="fill:#ff7f0e;stroke:#ff7f0e;" x="737.130144" xlink:href="#m8ba0964cd8" y="146.31223"/>
     <use style="fill:#ff7f0e;stroke:#ff7f0e;" x="744.605742" xlink:href="#m8ba0964cd8" y="143.47669"/>
     <use style="fill:#ff7f0e;stroke:#ff7f0e;" x="752.08134" xlink:href="#m8ba0964cd8" y="140.585155"/>
     <use style="fill:#ff7f0e;stroke:#ff7f0e;" x="759.556938" xlink:href="#m8ba0964cd8" y="138.259521"/>
     <use style="fill:#ff7f0e;stroke:#ff7f0e;" x="767.032536" xlink:href="#m8ba0964cd8" y="135.456495"/>
     <use style="fill:#ff7f0e;stroke:#ff7f0e;" x="774.508134" xlink:href="#m8ba0964cd8" y="133.562667"/>
     <use style="fill:#ff7f0e;stroke:#ff7f0e;" x="781.983732" xlink:href="#m8ba0964cd8" y="131.73117"/>
     <use style="fill:#ff7f0e;stroke:#ff7f0e;" x="789.45933" xlink:href="#m8ba0964cd8" y="129.729688"/>
     <use style="fill:#ff7f0e;stroke:#ff7f0e;" x="796.934928" xlink:href="#m8ba0964cd8" y="127.415712"/>
     <use style="fill:#ff7f0e;stroke:#ff7f0e;" x="804.410526" xlink:href="#m8ba0964cd8" y="125.397636"/>
     <use style="fill:#ff7f0e;stroke:#ff7f0e;" x="811.886124" xlink:href="#m8ba0964cd8" y="123.677894"/>
     <use style="fill:#ff7f0e;stroke:#ff7f0e;" x="819.361722" xlink:href="#m8ba0964cd8" y="121.892875"/>
     <use style="fill:#ff7f0e;stroke:#ff7f0e;" x="826.837321" xlink:href="#m8ba0964cd8" y="120.417299"/>
     <use style="fill:#ff7f0e;stroke:#ff7f0e;" x="834.312919" xlink:href="#m8ba0964cd8" y="118.871032"/>
     <use style="fill:#ff7f0e;stroke:#ff7f0e;" x="841.788517" xlink:href="#m8ba0964cd8" y="117.407005"/>
     <use style="fill:#ff7f0e;stroke:#ff7f0e;" x="849.264115" xlink:href="#m8ba0964cd8" y="115.80262"/>
     <use style="fill:#ff7f0e;stroke:#ff7f0e;" x="856.739713" xlink:href="#m8ba0964cd8" y="113.939506"/>
     <use style="fill:#ff7f0e;stroke:#ff7f0e;" x="864.215311" xlink:href="#m8ba0964cd8" y="112.39528"/>
     <use style="fill:#ff7f0e;stroke:#ff7f0e;" x="871.690909" xlink:href="#m8ba0964cd8" y="111.109091"/>
    </g>
   </g>
   <g id="patch_3">
    <path d="M 126 630 
L 126 86.4 
" style="fill:none;stroke:#000000;stroke-linecap:square;stroke-linejoin:miter;stroke-width:0.8;"/>
   </g>
   <g id="patch_4">
    <path d="M 907.2 630 
L 907.2 86.4 
" style="fill:none;stroke:#000000;stroke-linecap:square;stroke-linejoin:miter;stroke-width:0.8;"/>
   </g>
   <g id="patch_5">
    <path d="M 126 630 
L 907.2 630 
" style="fill:none;stroke:#000000;stroke-linecap:square;stroke-linejoin:miter;stroke-width:0.8;"/>
   </g>
   <g id="patch_6">
    <path d="M 126 86.4 
L 907.2 86.4 
" style="fill:none;stroke:#000000;stroke-linecap:square;stroke-linejoin:miter;stroke-width:0.8;"/>
   </g>
   <g id="legend_1">
    <g id="patch_7">
     <path d="M 138.08 142.193 
L 306.71525 142.193 
Q 309.59525 142.193 309.59525 139.313 
L 309.59525 98.48 
Q 309.59525 95.6 306.71525 95.6 
L 138.08 95.6 
Q 135.2 95.6 135.2 98.48 
L 135.2 139.313 
Q 135.2 142.193 138.08 142.193 
z
" style="fill:#4c4c4c;opacity:0.5;stroke:#4c4c4c;stroke-linejoin:miter;"/>
    </g>
    <g id="patch_8">
     <path d="M 136.08 140.193 
L 304.71525 140.193 
Q 307.59525 140.193 307.59525 137.313 
L 307.59525 96.48 
Q 307.59525 93.6 304.71525 93.6 
L 136.08 93.6 
Q 133.2 93.6 133.2 96.48 
L 133.2 137.313 
Q 133.2 140.193 136.08 140.193 
z
" style="fill:#ffffff;stroke:#cccccc;stroke-linejoin:miter;"/>
    </g>
    <g id="line2d_13">
     <path d="M 138.96 105.26175 
L 167.76 105.26175 
" style="fill:none;stroke:#1f77b4;stroke-linecap:square;stroke-width:1.5;"/>
    </g>
    <g id="line2d_14">
     <g>
      <use style="fill:#1f77b4;stroke:#1f77b4;" x="153.36" xlink:href="#m6fdda9195a" y="105.26175"/>
     </g>
    </g>
    <g id="text_11">
     <!-- SARS (2003) -->
     <defs>
      <path d="M 53.515625 70.515625 
L 53.515625 60.890625 
Q 47.90625 63.578125 42.921875 64.890625 
Q 37.9375 66.21875 33.296875 66.21875 
Q 25.25 66.21875 20.875 63.09375 
Q 16.5 59.96875 16.5 54.203125 
Q 16.5 49.359375 19.40625 46.890625 
Q 22.3125 44.4375 30.421875 42.921875 
L 36.375 41.703125 
Q 47.40625 39.59375 52.65625 34.296875 
Q 57.90625 29 57.90625 20.125 
Q 57.90625 9.515625 50.796875 4.046875 
Q 43.703125 -1.421875 29.984375 -1.421875 
Q 24.8125 -1.421875 18.96875 -0.25 
Q 13.140625 0.921875 6.890625 3.21875 
L 6.890625 13.375 
Q 12.890625 10.015625 18.65625 8.296875 
Q 24.421875 6.59375 29.984375 6.59375 
Q 38.421875 6.59375 43.015625 9.90625 
Q 47.609375 13.234375 47.609375 19.390625 
Q 47.609375 24.75 44.3125 27.78125 
Q 41.015625 30.8125 33.5 32.328125 
L 27.484375 33.5 
Q 16.453125 35.6875 11.515625 40.375 
Q 6.59375 45.0625 6.59375 53.421875 
Q 6.59375 63.09375 13.40625 68.65625 
Q 20.21875 74.21875 32.171875 74.21875 
Q 37.3125 74.21875 42.625 73.28125 
Q 47.953125 72.359375 53.515625 70.515625 
z
" id="DejaVuSans-83"/>
      <path d="M 34.1875 63.1875 
L 20.796875 26.90625 
L 47.609375 26.90625 
z
M 28.609375 72.90625 
L 39.796875 72.90625 
L 67.578125 0 
L 57.328125 0 
L 50.6875 18.703125 
L 17.828125 18.703125 
L 11.1875 0 
L 0.78125 0 
z
" id="DejaVuSans-65"/>
      <path d="M 44.390625 34.1875 
Q 47.5625 33.109375 50.5625 29.59375 
Q 53.5625 26.078125 56.59375 19.921875 
L 66.609375 0 
L 56 0 
L 46.6875 18.703125 
Q 43.0625 26.03125 39.671875 28.421875 
Q 36.28125 30.8125 30.421875 30.8125 
L 19.671875 30.8125 
L 19.671875 0 
L 9.8125 0 
L 9.8125 72.90625 
L 32.078125 72.90625 
Q 44.578125 72.90625 50.734375 67.671875 
Q 56.890625 62.453125 56.890625 51.90625 
Q 56.890625 45.015625 53.6875 40.46875 
Q 50.484375 35.9375 44.390625 34.1875 
z
M 19.671875 64.796875 
L 19.671875 38.921875 
L 32.078125 38.921875 
Q 39.203125 38.921875 42.84375 42.21875 
Q 46.484375 45.515625 46.484375 51.90625 
Q 46.484375 58.296875 42.84375 61.546875 
Q 39.203125 64.796875 32.078125 64.796875 
z
" id="DejaVuSans-82"/>
      <path id="DejaVuSans-32"/>
      <path d="M 31 75.875 
Q 24.46875 64.65625 21.28125 53.65625 
Q 18.109375 42.671875 18.109375 31.390625 
Q 18.109375 20.125 21.3125 9.0625 
Q 24.515625 -2 31 -13.1875 
L 23.1875 -13.1875 
Q 15.875 -1.703125 12.234375 9.375 
Q 8.59375 20.453125 8.59375 31.390625 
Q 8.59375 42.28125 12.203125 53.3125 
Q 15.828125 64.359375 23.1875 75.875 
z
" id="DejaVuSans-40"/>
      <path d="M 40.578125 39.3125 
Q 47.65625 37.796875 51.625 33 
Q 55.609375 28.21875 55.609375 21.1875 
Q 55.609375 10.40625 48.1875 4.484375 
Q 40.765625 -1.421875 27.09375 -1.421875 
Q 22.515625 -1.421875 17.65625 -0.515625 
Q 12.796875 0.390625 7.625 2.203125 
L 7.625 11.71875 
Q 11.71875 9.328125 16.59375 8.109375 
Q 21.484375 6.890625 26.8125 6.890625 
Q 36.078125 6.890625 40.9375 10.546875 
Q 45.796875 14.203125 45.796875 21.1875 
Q 45.796875 27.640625 41.28125 31.265625 
Q 36.765625 34.90625 28.71875 34.90625 
L 20.21875 34.90625 
L 20.21875 43.015625 
L 29.109375 43.015625 
Q 36.375 43.015625 40.234375 45.921875 
Q 44.09375 48.828125 44.09375 54.296875 
Q 44.09375 59.90625 40.109375 62.90625 
Q 36.140625 65.921875 28.71875 65.921875 
Q 24.65625 65.921875 20.015625 65.03125 
Q 15.375 64.15625 9.8125 62.3125 
L 9.8125 71.09375 
Q 15.4375 72.65625 20.34375 73.4375 
Q 25.25 74.21875 29.59375 74.21875 
Q 40.828125 74.21875 47.359375 69.109375 
Q 53.90625 64.015625 53.90625 55.328125 
Q 53.90625 49.265625 50.4375 45.09375 
Q 46.96875 40.921875 40.578125 39.3125 
z
" id="DejaVuSans-51"/>
      <path d="M 8.015625 75.875 
L 15.828125 75.875 
Q 23.140625 64.359375 26.78125 53.3125 
Q 30.421875 42.28125 30.421875 31.390625 
Q 30.421875 20.453125 26.78125 9.375 
Q 23.140625 -1.703125 15.828125 -13.1875 
L 8.015625 -13.1875 
Q 14.5 -2 17.703125 9.0625 
Q 20.90625 20.125 20.90625 31.390625 
Q 20.90625 42.671875 17.703125 53.65625 
Q 14.5 64.65625 8.015625 75.875 
z
" id="DejaVuSans-41"/>
     </defs>
     <g transform="translate(179.28 110.30175)scale(0.144 -0.144)">
      <use xlink:href="#DejaVuSans-83"/>
      <use x="63.492188" xlink:href="#DejaVuSans-65"/>
      <use x="131.900391" xlink:href="#DejaVuSans-82"/>
      <use x="201.382812" xlink:href="#DejaVuSans-83"/>
      <use x="264.859375" xlink:href="#DejaVuSans-32"/>
      <use x="296.646484" xlink:href="#DejaVuSans-40"/>
      <use x="335.660156" xlink:href="#DejaVuSans-50"/>
      <use x="399.283203" xlink:href="#DejaVuSans-48"/>
      <use x="462.90625" xlink:href="#DejaVuSans-48"/>
      <use x="526.529297" xlink:href="#DejaVuSans-51"/>
      <use x="590.152344" xlink:href="#DejaVuSans-41"/>
     </g>
    </g>
    <g id="line2d_15">
     <path d="M 138.96 126.39825 
L 167.76 126.39825 
" style="fill:none;stroke:#ff7f0e;stroke-linecap:square;stroke-width:1.5;"/>
    </g>
    <g id="line2d_16">
     <g>
      <use style="fill:#ff7f0e;stroke:#ff7f0e;" x="153.36" xlink:href="#m8ba0964cd8" y="126.39825"/>
     </g>
    </g>
    <g id="text_12">
     <!-- COVID-19 (2020) -->
     <defs>
      <path d="M 64.40625 67.28125 
L 64.40625 56.890625 
Q 59.421875 61.53125 53.78125 63.8125 
Q 48.140625 66.109375 41.796875 66.109375 
Q 29.296875 66.109375 22.65625 58.46875 
Q 16.015625 50.828125 16.015625 36.375 
Q 16.015625 21.96875 22.65625 14.328125 
Q 29.296875 6.6875 41.796875 6.6875 
Q 48.140625 6.6875 53.78125 8.984375 
Q 59.421875 11.28125 64.40625 15.921875 
L 64.40625 5.609375 
Q 59.234375 2.09375 53.4375 0.328125 
Q 47.65625 -1.421875 41.21875 -1.421875 
Q 24.65625 -1.421875 15.125 8.703125 
Q 5.609375 18.84375 5.609375 36.375 
Q 5.609375 53.953125 15.125 64.078125 
Q 24.65625 74.21875 41.21875 74.21875 
Q 47.75 74.21875 53.53125 72.484375 
Q 59.328125 70.75 64.40625 67.28125 
z
" id="DejaVuSans-67"/>
      <path d="M 39.40625 66.21875 
Q 28.65625 66.21875 22.328125 58.203125 
Q 16.015625 50.203125 16.015625 36.375 
Q 16.015625 22.609375 22.328125 14.59375 
Q 28.65625 6.59375 39.40625 6.59375 
Q 50.140625 6.59375 56.421875 14.59375 
Q 62.703125 22.609375 62.703125 36.375 
Q 62.703125 50.203125 56.421875 58.203125 
Q 50.140625 66.21875 39.40625 66.21875 
z
M 39.40625 74.21875 
Q 54.734375 74.21875 63.90625 63.9375 
Q 73.09375 53.65625 73.09375 36.375 
Q 73.09375 19.140625 63.90625 8.859375 
Q 54.734375 -1.421875 39.40625 -1.421875 
Q 24.03125 -1.421875 14.8125 8.828125 
Q 5.609375 19.09375 5.609375 36.375 
Q 5.609375 53.65625 14.8125 63.9375 
Q 24.03125 74.21875 39.40625 74.21875 
z
" id="DejaVuSans-79"/>
      <path d="M 28.609375 0 
L 0.78125 72.90625 
L 11.078125 72.90625 
L 34.1875 11.53125 
L 57.328125 72.90625 
L 67.578125 72.90625 
L 39.796875 0 
z
" id="DejaVuSans-86"/>
      <path d="M 9.8125 72.90625 
L 19.671875 72.90625 
L 19.671875 0 
L 9.8125 0 
z
" id="DejaVuSans-73"/>
      <path d="M 19.671875 64.796875 
L 19.671875 8.109375 
L 31.59375 8.109375 
Q 46.6875 8.109375 53.6875 14.9375 
Q 60.6875 21.78125 60.6875 36.53125 
Q 60.6875 51.171875 53.6875 57.984375 
Q 46.6875 64.796875 31.59375 64.796875 
z
M 9.8125 72.90625 
L 30.078125 72.90625 
Q 51.265625 72.90625 61.171875 64.09375 
Q 71.09375 55.28125 71.09375 36.53125 
Q 71.09375 17.671875 61.125 8.828125 
Q 51.171875 0 30.078125 0 
L 9.8125 0 
z
" id="DejaVuSans-68"/>
      <path d="M 4.890625 31.390625 
L 31.203125 31.390625 
L 31.203125 23.390625 
L 4.890625 23.390625 
z
" id="DejaVuSans-45"/>
      <path d="M 10.984375 1.515625 
L 10.984375 10.5 
Q 14.703125 8.734375 18.5 7.8125 
Q 22.3125 6.890625 25.984375 6.890625 
Q 35.75 6.890625 40.890625 13.453125 
Q 46.046875 20.015625 46.78125 33.40625 
Q 43.953125 29.203125 39.59375 26.953125 
Q 35.25 24.703125 29.984375 24.703125 
Q 19.046875 24.703125 12.671875 31.3125 
Q 6.296875 37.9375 6.296875 49.421875 
Q 6.296875 60.640625 12.9375 67.421875 
Q 19.578125 74.21875 30.609375 74.21875 
Q 43.265625 74.21875 49.921875 64.515625 
Q 56.59375 54.828125 56.59375 36.375 
Q 56.59375 19.140625 48.40625 8.859375 
Q 40.234375 -1.421875 26.421875 -1.421875 
Q 22.703125 -1.421875 18.890625 -0.6875 
Q 15.09375 0.046875 10.984375 1.515625 
z
M 30.609375 32.421875 
Q 37.25 32.421875 41.125 36.953125 
Q 45.015625 41.5 45.015625 49.421875 
Q 45.015625 57.28125 41.125 61.84375 
Q 37.25 66.40625 30.609375 66.40625 
Q 23.96875 66.40625 20.09375 61.84375 
Q 16.21875 57.28125 16.21875 49.421875 
Q 16.21875 41.5 20.09375 36.953125 
Q 23.96875 32.421875 30.609375 32.421875 
z
" id="DejaVuSans-57"/>
     </defs>
     <g transform="translate(179.28 131.43825)scale(0.144 -0.144)">
      <use xlink:href="#DejaVuSans-67"/>
      <use x="69.824219" xlink:href="#DejaVuSans-79"/>
      <use x="148.519531" xlink:href="#DejaVuSans-86"/>
      <use x="216.927734" xlink:href="#DejaVuSans-73"/>
      <use x="246.419922" xlink:href="#DejaVuSans-68"/>
      <use x="323.421875" xlink:href="#DejaVuSans-45"/>
      <use x="359.505859" xlink:href="#DejaVuSans-49"/>
      <use x="423.128906" xlink:href="#DejaVuSans-57"/>
      <use x="486.751953" xlink:href="#DejaVuSans-32"/>
      <use x="518.539062" xlink:href="#DejaVuSans-40"/>
      <use x="557.552734" xlink:href="#DejaVuSans-50"/>
      <use x="621.175781" xlink:href="#DejaVuSans-48"/>
      <use x="684.798828" xlink:href="#DejaVuSans-50"/>
      <use x="748.421875" xlink:href="#DejaVuSans-48"/>
      <use x="812.044922" xlink:href="#DejaVuSans-41"/>
     </g>
    </g>
   </g>
  </g>
 </g>
 <defs>
  <clipPath id="p13eedca5b8">
   <rect height="543.6" width="781.2" x="126" y="86.4"/>
  </clipPath>
 </defs>
</svg>
